<?xml version="1.0" encoding="UTF-8"?>
<svg id="Layer_1" data-name="Layer 1" xmlns="http://www.w3.org/2000/svg" viewBox="0 0 1125.13 1080.02">
  <path d="M1125.06,2.46s0,0,0,0V0H0v1080.02h21.25v-.07l412.21-1.16,529.12-4.5s0,0,0,0h.2s0-.02,0-.02c.07,0,.13,0,.2-.02,98.2-16.88,162.16-83.8,162.15-182.96l-.08-888.84ZM1106.43,467.27c0,.09,0,.18-.01.28-6.53,60.8-18.72,115.27-47.07,167.18-.07.12-.14.24-.23.35-104.18,135.23-271.11,166.73-392.6,311.63-.05.06-.11.12-.16.18-70.12,68.87-154.75,99.55-252.51,111.89H21.25V21.25h1084.28l.9,446.02ZM654.19,1002.6c62.16-54.15,121.78-113.4,192.06-156.77,49.21-30.36,101.05-56.35,149-88.77,45.1-30.49,79.67-69.67,102.28-119.51,1.12-2.47,4.81-1.56,4.69,1.14-4.46,96.29-78.96,167.65-167.61,205.29-73.2,31.08-139.9,67.36-206.04,116.1-24.46,18.03-46.81,33.9-71.64,46.55-2.59,1.32-4.93-2.13-2.74-4.04ZM703.1,1019.86c50.72-38.27,110.57-73.54,173.77-103l135.15-63c43.5-20.28,67.62-60.4,86.43-103.92,1.07-2.47,4.75-1.67,4.71,1.03-1.19,84.71-60.09,147.07-139.35,176.68l-258.36,96.49c-2.65.99-4.61-2.56-2.35-4.26ZM971.95,1018.72l-193.99,26.51c-2.94.4-3.94-3.79-1.13-4.76l200.89-68.97c58.21-19.98,100.35-57.14,125.43-114.04,1.09-2.48,4.81-1.58,4.7,1.12-3.27,77.75-54.42,149-135.9,160.14Z"/>
</svg>