<?xml version="1.0" encoding="UTF-8"?>
<svg id="Layer_1" data-name="Layer 1" xmlns="http://www.w3.org/2000/svg" viewBox="0 0 1012.86 1152.87">
  <path d="M141,1100.45c-.09-.07-.18-.13-.27-.19-11.04-6.88-36.93-6.01-64.38-5.09-22.17.74-45.13,1.52-53.82-2.55-2.6-1.54-2.46-8.6-2.38-12.82.03-1.3.05-2.5.02-3.39.14-7.35,2.97-9.31,13.72-9.54h106.74c1.84,0,3.33-1.49,3.33-3.33v-7.87c0-1.84-1.49-3.33-3.33-3.33H31.06c-15.18.26-29.29,3.14-29.75,22.01-1.48,12.79.66,22.29,6.36,28.23,5.19,5.4,13.17,7.74,23.69,6.93l-.02-.2c2.39.21,6.37.21,13.03.22h71.55c10.67.19,13.63,2.25,13.78,9.34-.05,1.13-.02,2.48,0,3.93.07,4.15.19,11.1-2.3,12.52-.3.17-.57.39-.81.64-6.86,2.96-61.04,2.25-90.32,1.86-20.31-.26-31.01-.38-33.52.05-1.6.27-2.77,1.66-2.77,3.28v7.87c0,.96.42,1.87,1.14,2.5.73.63,1.7.92,2.63.79,4.57-.61,19.98-.31,37.79.03,15.61.3,30.17.53,43.11.53,30.14,0,51.43-1.26,56.47-5.85,6.1-4.84,8.22-15.35,8.17-23.58-.06-10.43-3.16-19.03-8.3-23Z"/>
  <path d="M399.14,1052.35h-12.23c-1.84,0-3.33,1.49-3.33,3.33v39.48h-117.14v-39.48c0-1.84-1.49-3.33-3.33-3.33h-12.23c-1.84,0-3.33,1.49-3.33,3.33v93.34c0,1.84,1.49,3.33,3.33,3.33h12.23c1.84,0,3.33-1.49,3.33-3.33v-39.48h117.14v39.48c0,1.84,1.49,3.33,3.33,3.33h12.23c1.84,0,3.33-1.49,3.33-3.33v-93.34c0-1.84-1.49-3.33-3.33-3.33Z"/>
  <rect x="507.92" y="1052.35" width="18.88" height="99.99" rx="3.33" ry="3.33"/>
  <path d="M775.12,1052.35h-139.72c-1.84,0-3.33,1.49-3.33,3.33v93.34c0,1.84,1.49,3.33,3.33,3.33h12.23c1.84,0,3.33-1.49,3.33-3.33v-39.48h106.75c1.84,0,3.33-1.49,3.33-3.33v-7.74c0-1.84-1.49-3.33-3.33-3.33h-106.75v-28.28h124.17c1.84,0,3.33-1.49,3.33-3.33v-7.87c0-1.84-1.49-3.33-3.33-3.33Z"/>
  <path d="M1009.53,1052.35h-145.65c-1.84,0-3.33,1.49-3.33,3.33v7.87c0,1.84,1.49,3.33,3.33,3.33h63.39v82.15c0,1.84,1.49,3.33,3.33,3.33h12.41c1.84,0,3.33-1.49,3.33-3.33v-82.15h63.2c1.84,0,3.33-1.49,3.33-3.33v-7.87c0-1.84-1.49-3.33-3.33-3.33Z"/>
  <path d="M1004.79,2.16s0,0,0,0V0H17.94v947.35h18.64v-.06l361.57-1.02,464.12-3.95s0,0,0,0h.18s0-.02,0-.02c.06,0,.12,0,.18-.02,86.13-14.81,142.24-73.51,142.23-160.48l-.07-779.65ZM988.45,409.87c0,.08,0,.16-.01.24-5.73,53.33-16.42,101.11-41.28,146.64-.06.11-.13.21-.2.31-91.38,118.62-237.81,146.25-344.37,273.35-.05.05-.09.11-.14.15-61.51,60.41-135.74,87.32-221.49,98.15H36.58V18.64h951.08l.79,391.23ZM591.77,879.44c54.53-47.49,106.82-99.47,168.47-137.51,43.16-26.63,88.64-49.43,130.7-77.86,39.56-26.74,69.89-61.11,89.71-104.82.98-2.16,4.22-1.37,4.11,1-3.92,84.46-69.26,147.06-147.02,180.07-64.21,27.26-122.72,59.09-180.73,101.84-21.46,15.81-41.06,29.73-62.84,40.83-2.27,1.16-4.32-1.87-2.4-3.54ZM634.67,894.58c44.49-33.57,96.99-64.51,152.42-90.35l118.55-55.26c38.16-17.79,59.31-52.98,75.81-91.15.94-2.17,4.16-1.46,4.13.9-1.05,74.3-52.7,129-122.23,154.97l-226.62,84.64c-2.33.87-4.04-2.24-2.06-3.74ZM870.49,893.57l-170.16,23.26c-2.58.35-3.46-3.33-.99-4.17l176.22-60.5c51.06-17.53,88.02-50.12,110.02-100.03.96-2.17,4.22-1.39,4.12.98-2.87,68.19-47.74,130.7-119.21,140.47Z"/>
</svg>